<?xml version="1.0" encoding="UTF-8"?>
<svg id="Layer_2" data-name="Layer 2" xmlns="http://www.w3.org/2000/svg" viewBox="0 0 156.65 170.83">
  <defs>
    <style>
      .cls-1 {
        font-size: 39.78px;
      }

      .cls-1, .cls-2 {
        font-family: Skia-BlackCondensed, Skia;
        font-variation-settings: 'wght' 3, 'wdth' 0;
        font-weight: 800;
      }

      .cls-3 {
        fill: #fff;
      }

      .cls-2 {
        font-size: 40.46px;
      }

      .cls-4 {
        fill: none;
        stroke: #000;
        stroke-miterlimit: 10;
        stroke-width: 5px;
      }
    </style>
  </defs>
  <g id="Layer_8" data-name="Layer 8">
    <path class="cls-3" d="M138.38,33.08c0-1.02-.05-2.16-.16-3.42s-.28-2.01-.52-2.25c-.17-.2-.37-.36-.59-.47-.22-.11-.47-.16-.76-.16h-.2v12.82h.17c.22,0,.46-.05.73-.14.26-.1.46-.23.6-.39.28-.65.48-1.57.58-2.74.1-1.18.16-2.25.16-3.24Z"/>
  </g>
  <g id="Layer_7" data-name="Layer 7">
    <line class="cls-4" x1="3.52" y1="89.69" x2="153.13" y2="89.69"/>
  </g>
  <g id="Layer_6" data-name="Layer 6">
    <line class="cls-4" x1="78.33" y1="167.26" x2="78.33" y2="40.29"/>
  </g>
  <g id="Layer_5" data-name="Layer 5">
    <path class="cls-4" d="M11.65,52.2c-5.84,11.14-9.15,23.91-9.15,37.48,0,43.43,33.95,78.64,75.83,78.64s75.83-35.21,75.83-78.64c0-13.65-3.35-26.49-9.25-37.68"/>
  </g>
  <g id="Layer_4" data-name="Layer 4">
    <text class="cls-2" transform="translate(126.36 46.72) scale(1.01 1)"><tspan x="0" y="0">D</tspan></text>
  </g>
  <g id="Layer_3" data-name="Layer 3">
    <text class="cls-1" transform="translate(68.06 32.9) scale(.95 1)"><tspan x="0" y="0">N</tspan></text>
  </g>
  <g id="Layer_2-2" data-name="Layer 2">
    <text class="cls-2" transform="translate(8.71 46.35) scale(.91 1)"><tspan x="0" y="0">S</tspan></text>
  </g>
</svg>